<svg id="Capa_1" enable-background="new 0 0 499.546 499.546" height="512" viewBox="0 0 499.546 499.546" width="512" xmlns="http://www.w3.org/2000/svg"><g><path d="m331.007 321.412c88.756 0 160.706-71.951 160.706-160.706 0-88.756-71.95-160.706-160.706-160.706-73.023 0-134.659 48.707-154.221 115.403-16.848-10.291-36.65-16.224-57.837-16.224-61.368 0-111.117 49.749-111.117 111.117s49.749 111.117 111.117 111.117h212.058z" fill="#f7f2f0"/><path d="m59.171 259.416c1.218-60.822 51.914-109.717 112.742-108.832 13.457.196 26.335 2.785 38.227 7.36 9.804 3.771 20.807-.922 25.04-10.536 24.891-56.538 81.403-96.014 147.143-96.014 31.268 0 60.46 8.943 85.145 24.391-28.379-45.499-78.888-75.785-136.461-75.785-73.023 0-134.659 48.707-154.22 115.403-17.209-10.512-37.5-16.476-59.201-16.215-59.64.715-108.522 49.171-109.73 108.802-.91 44.884 24.812 83.868 62.43 102.227-7.438-15.297-11.48-32.566-11.115-50.801z" fill="#f1e9e6"/><path d="m390.958 204.65c-20.707-.747-39.716 6.442-54.253 18.751-1.759 1.49-4.085 2.08-6.353 1.668-3.668-.666-7.444-1.021-11.305-1.021-29.852 0-54.875 20.673-61.535 48.484-.992 4.143-5.227 6.542-9.352 5.476-4.092-1.058-8.419-1.535-12.885-1.338-22.417.989-40.608 19.294-41.469 41.716-.952 24.789 18.862 45.183 43.439 45.183h150.778c45.331 0 81.799-37.947 79.371-83.808-2.162-40.842-35.563-73.637-76.436-75.111z" fill="#f1e9e6"/><g><path d="m161.091 499.546c-1.277 0-2.572-.327-3.756-1.014-3.583-2.078-4.803-6.667-2.725-10.25l52.035-89.716c2.079-3.583 6.669-4.802 10.25-2.725 3.583 2.078 4.803 6.667 2.725 10.25l-52.035 89.716c-1.391 2.399-3.908 3.739-6.494 3.739z" fill="#85d6e4"/></g><g><path d="m239.143 454.688c-1.277 0-2.572-.327-3.756-1.014-3.583-2.078-4.803-6.667-2.725-10.25l26.018-44.858c2.078-3.583 6.669-4.802 10.25-2.725 3.583 2.078 4.803 6.667 2.725 10.25l-26.018 44.858c-1.39 2.399-3.907 3.739-6.494 3.739z" fill="#85d6e4"/></g><g><path d="m265.161 499.546c-1.277 0-2.572-.327-3.756-1.014-3.583-2.078-4.803-6.667-2.725-10.25l52.035-89.716c2.079-3.583 6.67-4.802 10.25-2.725 3.583 2.078 4.803 6.667 2.725 10.25l-52.035 89.716c-1.39 2.399-3.908 3.739-6.494 3.739z" fill="#85d6e4"/></g><g><path d="m317.196 499.546c-1.277 0-2.571-.327-3.756-1.014-3.583-2.078-4.803-6.667-2.725-10.25l16.421-28.313c2.078-3.584 6.668-4.802 10.25-2.725 3.583 2.078 4.803 6.667 2.725 10.25l-16.421 28.313c-1.39 2.399-3.907 3.739-6.494 3.739z" fill="#85d6e4"/></g><g><path d="m355.303 433.844c-1.277 0-2.572-.327-3.756-1.014-3.583-2.078-4.803-6.667-2.725-10.25l13.928-24.014c2.078-3.583 6.669-4.802 10.25-2.725 3.583 2.078 4.803 6.667 2.725 10.25l-13.928 24.014c-1.39 2.399-3.907 3.739-6.494 3.739z" fill="#85d6e4"/></g><g><path d="m369.231 499.546c-1.277 0-2.572-.327-3.756-1.014-3.583-2.078-4.803-6.667-2.725-10.25l52.035-89.716c2.079-3.583 6.669-4.802 10.25-2.725 3.583 2.078 4.803 6.667 2.725 10.25l-52.035 89.716c-1.391 2.399-3.908 3.739-6.494 3.739z" fill="#85d6e4"/></g></g></svg>