<svg id="Capa_1" enable-background="new 0 0 496.705 496.705" height="512" viewBox="0 0 496.705 496.705" width="512" xmlns="http://www.w3.org/2000/svg"><g><path d="m222.8 79.889c-.935-38.379-28.106-71.614-65.976-79.857-.892-.194-1.71.531-1.662 1.443.232 4.454.091 8.987-.465 13.566-5.21 42.851-44.171 73.366-87.022 68.156-3.771-.458-7.441-1.192-11.003-2.156-.881-.239-1.762.409-1.76 1.322.058 21.473 8.356 41.436 22.172 56.479l42.763 32.371 102.953-33.986z" fill="#fae88b"/><path d="m340.328 330.52c84.45 0 152.91-68.924 152.91-153.946s-68.46-153.946-152.91-153.946c-69.48 0-128.126 46.658-146.739 110.548-16.031-9.858-34.872-15.541-55.031-15.541-58.391 0-105.726 47.656-105.726 106.442 0 58.787 47.335 106.442 105.726 106.442h201.77z" fill="#f7f2f0"/><path d="m81.681 271.131c1.159-58.264 49.396-105.102 107.273-104.254 12.804.188 25.057 2.668 36.373 7.05 9.328 3.613 19.798-.884 23.825-10.093 23.684-54.16 77.454-91.975 140.004-91.975 29.751 0 57.526 8.567 81.014 23.365-27.002-43.584-75.061-72.596-129.841-72.596-69.48 0-128.126 46.658-146.738 110.548-16.375-10.069-35.68-15.783-56.329-15.533-56.747.686-103.258 47.104-104.407 104.227-.865 42.996 23.608 80.34 59.401 97.927-7.077-14.655-10.923-31.197-10.575-48.666z" fill="#f1e9e6"/><path d="m458.025 272.522c-.153-.004-.307-.006-.46-.008-8.667-.097-15.626-7.133-15.402-15.798.063-2.444.005-4.918-.182-7.418-2.737-36.694-32.859-65.907-69.62-67.515-41.869-1.831-76.389 31.571-76.389 73.036 0 4.405.393 8.717 1.141 12.908.148.83-.483 1.578-1.326 1.577-.006 0-.011 0-.017 0-20.57 0-37.291 16.479-37.682 36.955-.404 21.129 17.294 38.424 38.427 38.424h160.637c20.267 0 36.632-16.708 36.072-37.102-.523-19.039-16.159-34.61-35.199-35.059z" fill="#f1e9e6"/><path d="m135.627 271.414h-1.435c.205-2.111.317-4.25.317-6.415 0-36.186-29.334-65.52-65.52-65.52s-65.52 29.334-65.52 65.52 29.334 65.521 65.52 65.521h66.639c16.322 0 29.553-13.231 29.553-29.553-.002-16.321-13.233-29.553-29.554-29.553z" fill="#e1d3ce"/><g fill="#d4f2f6"><path d="m313.219 424.864c-3.128 7.958-12.114 11.873-20.072 8.745s-11.873-12.114-8.745-20.072c1.966-5.001 11.752-13.184 18.753-18.574 3.363-2.589 8.277-.658 8.977 3.529 1.457 8.714 3.053 21.371 1.087 26.372z"/><path d="m390.149 409.494c-3.128 7.958-12.114 11.873-20.072 8.745s-11.873-12.114-8.745-20.072c1.966-5.001 11.752-13.184 18.753-18.574 3.363-2.589 8.277-.658 8.977 3.529 1.457 8.714 3.053 21.37 1.087 26.372z"/><path d="m358.709 486.883c-3.128 7.958-12.114 11.873-20.072 8.745s-11.873-12.114-8.745-20.072c1.966-5.001 11.752-13.184 18.753-18.574 3.363-2.589 8.277-.658 8.977 3.529 1.457 8.714 3.053 21.371 1.087 26.372z"/></g><g><path d="m203.523 475.265c-1.468 0-2.952-.431-4.251-1.327-3.41-2.352-4.268-7.022-1.916-10.433l66.834-96.896c2.352-3.408 7.02-4.267 10.433-1.915 3.409 2.352 4.267 7.022 1.915 10.433l-66.834 96.896c-1.456 2.109-3.799 3.242-6.181 3.242z" fill="#85d6e4"/></g><g><path d="m263.432 485.304c-1.469 0-2.951-.431-4.252-1.327-3.409-2.352-4.267-7.022-1.915-10.433l10.008-14.509c2.352-3.409 7.021-4.268 10.433-1.915 3.409 2.352 4.267 7.022 1.915 10.433l-10.008 14.509c-1.456 2.109-3.798 3.242-6.181 3.242z" fill="#85d6e4"/></g><g><path d="m411.008 475.265c-1.469 0-2.951-.431-4.252-1.327-3.409-2.352-4.267-7.022-1.915-10.433l27.088-39.271c2.352-3.41 7.021-4.267 10.433-1.915 3.409 2.352 4.267 7.022 1.915 10.433l-27.088 39.271c-1.455 2.109-3.798 3.242-6.181 3.242z" fill="#85d6e4"/></g><g><path d="m465.685 395.995c-1.468 0-2.951-.431-4.252-1.327-3.409-2.352-4.267-7.022-1.915-10.433l12.157-17.626c2.351-3.408 7.021-4.267 10.433-1.915 3.409 2.352 4.267 7.022 1.915 10.433l-12.157 17.626c-1.456 2.109-3.798 3.242-6.181 3.242z" fill="#85d6e4"/></g></g></svg>