<svg id="Capa_1" enable-background="new 0 0 497.723 497.723" height="512" viewBox="0 0 497.723 497.723" width="512" xmlns="http://www.w3.org/2000/svg"><g><g><path d="m358.71 427.504c-30.866 25.687-68.782 43.725-111.286 50.639-103.53 16.84-202.189-37.46-246.134-126.978-4.712-9.599 4.26-20.181 14.467-16.992 17.046 5.326 35.138 8.286 53.891 8.49 60.126.657 114.169-27.393 149.033-71.322l23.884-39.03c5.622-12.358 9.94-25.426 12.773-39.03l3.911-39.03c-.211-44.773-16.101-85.84-42.476-117.98-6.751-8.227-.217-20.481 10.397-19.708 85.483 6.223 160.984 59.544 195.58 137.689l13.258 39.03c1.433 5.885 2.662 11.864 3.651 17.943 1.148 7.058 1.947 14.09 2.445 21.087l-.502 39.03c-1.301 13.311-3.742 26.36-7.242 39.03l-14.671 39.03c-6.648 13.788-14.623 26.878-23.803 39.072z" fill="#fee97d"/></g><g><path d="m81.482 342.417c-3.912.203-7.866.29-11.835.247-18.753-.205-36.845-3.164-53.891-8.49-10.206-3.189-19.179 7.394-14.467 16.992 43.945 89.517 142.604 143.818 246.134 126.978 22.832-3.714 44.351-10.643 64.153-20.238-95.101 11.638-184.802-36.226-230.094-115.489z" fill="#fee45a"/></g><path d="m182.384 166.076c-7.787-5.051-14.188-11.358-19.112-19.005-2.295-3.564-7.502-3.625-9.96-.172-4.988 7.008-11.384 13.19-19.026 18.641-3.518 2.509-3.37 7.855.292 10.149 7.622 4.773 14.007 10.953 18.985 18.736 2.294 3.586 7.553 3.599 9.911.054 4.818-7.245 11.287-13.226 18.964-18.284 3.665-2.414 3.629-7.73-.054-10.119z" fill="#fee97d"/><path d="m66.19 53.317c-7.787-5.051-14.188-11.358-19.112-19.005-2.295-3.564-7.502-3.625-9.96-.172-4.988 7.008-11.384 13.19-19.026 18.64-3.518 2.509-3.37 7.855.292 10.149 7.622 4.773 14.007 10.953 18.985 18.736 2.294 3.586 7.553 3.599 9.911.054 4.818-7.245 11.287-13.226 18.964-18.284 3.666-2.414 3.629-7.73-.054-10.118z" fill="#fee97d"/><g><g><path d="m151.521 75.462c-4.142 0-7.5-3.357-7.5-7.5v-26.572c0-4.143 3.358-7.5 7.5-7.5s7.5 3.357 7.5 7.5v26.572c0 4.143-3.357 7.5-7.5 7.5z" fill="#fff8bf"/></g></g><g><g><path d="m164.808 62.176h-26.573c-4.142 0-7.5-3.357-7.5-7.5s3.358-7.5 7.5-7.5h26.573c4.142 0 7.5 3.357 7.5 7.5s-3.358 7.5-7.5 7.5z" fill="#fff8bf"/></g></g><g><g><path d="m46.393 206.81c-4.142 0-7.5-3.357-7.5-7.5v-26.573c0-4.143 3.358-7.5 7.5-7.5s7.5 3.357 7.5 7.5v26.573c0 4.142-3.358 7.5-7.5 7.5z" fill="#fff8bf"/></g></g><g><g><path d="m59.679 193.524h-26.572c-4.142 0-7.5-3.357-7.5-7.5s3.358-7.5 7.5-7.5h26.572c4.142 0 7.5 3.357 7.5 7.5s-3.358 7.5-7.5 7.5z" fill="#fff8bf"/></g></g><g fill="#dcf5f8"><path d="m478.208 388.474h-94.689c-10.789 0-19.536-8.747-19.536-19.536 0-10.789 8.747-19.536 19.536-19.536h65.023c10.582 0 19.594-8.229 19.97-18.804.395-11.102-8.488-20.226-19.502-20.226h-93.882c-10.778 0-19.515-8.737-19.515-19.515 0-10.778 8.737-19.515 19.515-19.515h100.509c10.582 0 19.594-8.229 19.97-18.804.395-11.102-8.488-20.226-19.502-20.226h-280.456c-10.582 0-19.594 8.228-19.97 18.803-.395 11.102 8.488 20.227 19.502 20.227h72.997c10.778 0 19.515 8.737 19.515 19.515 0 10.778-8.737 19.515-19.515 19.515h-16.456c-10.582 0-19.594 8.229-19.97 18.804-.395 11.102 8.488 20.226 19.502 20.226h65.674c10.789 0 19.536 8.747 19.536 19.536 0 10.789-8.747 19.536-19.536 19.536h-27.635c-10.778 0-19.515 8.737-19.515 19.515 0 10.778 8.737 19.515 19.515 19.515h208.915c10.778 0 19.515-8.737 19.515-19.515 0-10.778-8.737-19.515-19.515-19.515z"/><path d="m376.315 193.281h101.785c10.778 0 19.515-8.737 19.515-19.515 0-10.778-8.737-19.515-19.515-19.515h-101.785c-10.778 0-19.515 8.737-19.515 19.515 0 10.778 8.737 19.515 19.515 19.515z"/><path d="m242.071 193.281h55.818c10.778 0 19.515-8.737 19.515-19.515 0-10.778-8.737-19.515-19.515-19.515h-55.818c-10.778 0-19.515 8.737-19.515 19.515 0 10.778 8.737 19.515 19.515 19.515z"/></g></g></svg>